<svg width="200" height="300" viewBox="0 0 200 300" fill="none" xmlns="http://www.w3.org/2000/svg">
  <rect width="200" height="300" fill="#059669"/>
  <rect x="10" y="10" width="180" height="280" fill="#10b981" stroke="#047857" stroke-width="2"/>
  <rect x="30" y="40" width="140" height="100" fill="#064e3b" stroke="#065f46" stroke-width="2"/>
  <rect x="40" y="50" width="120" height="80" fill="#10b981"/>
  <circle cx="60" cy="70" r="3" fill="#ffffff"/>
  <circle cx="80" cy="70" r="3" fill="#ffffff"/>
  <circle cx="100" cy="70" r="3" fill="#ffffff"/>
  <rect x="45" y="85" width="110" height="2" fill="#ffffff"/>
  <rect x="45" y="90" width="90" height="2" fill="#ffffff"/>
  <rect x="45" y="95" width="100" height="2" fill="#ffffff"/>
  <rect x="45" y="100" width="80" height="2" fill="#ffffff"/>
  <rect x="45" y="105" width="95" height="2" fill="#ffffff"/>
  <rect x="45" y="110" width="85" height="2" fill="#ffffff"/>
  <text x="100" y="170" text-anchor="middle" fill="#ffffff" font-family="Arial, sans-serif" font-size="14" font-weight="bold">COMPUTER</text>
  <text x="100" y="190" text-anchor="middle" fill="#ffffff" font-family="Arial, sans-serif" font-size="14" font-weight="bold">SCIENCE</text>
  <text x="100" y="210" text-anchor="middle" fill="#ffffff" font-family="Arial, sans-serif" font-size="12">FUNDAMENTALS</text>
  <rect x="30" y="220" width="140" height="4" fill="#fbbf24"/>
  <text x="100" y="250" text-anchor="middle" fill="#e5e7eb" font-family="Arial, sans-serif" font-size="10">Programming & Algorithms</text>
  <text x="100" y="265" text-anchor="middle" fill="#e5e7eb" font-family="Arial, sans-serif" font-size="10">Data Structures</text>
</svg> 